<?xml version="1.0" encoding="UTF-8" standalone="no"?>
<!-- Created with Inkscape (http://www.inkscape.org/) -->

<svg
   xmlns:dc="http://purl.org/dc/elements/1.1/"
   xmlns:cc="http://creativecommons.org/ns#"
   xmlns:rdf="http://www.w3.org/1999/02/22-rdf-syntax-ns#"
   xmlns:svg="http://www.w3.org/2000/svg"
   xmlns="http://www.w3.org/2000/svg"
   xmlns:sodipodi="http://sodipodi.sourceforge.net/DTD/sodipodi-0.dtd"
   xmlns:inkscape="http://www.inkscape.org/namespaces/inkscape"
   width="180.61346mm"
   height="574.25mm"
   viewBox="0 0 639.96897 2034.7441"
   id="svg2"
   version="1.1"
   inkscape:version="0.91 r13725"
   sodipodi:docname="stripes.svg">
  <defs
     id="defs4" />
  <sodipodi:namedview
     id="base"
     pagecolor="#ffffff"
     bordercolor="#666666"
     borderopacity="1.0"
     inkscape:pageopacity="0.0"
     inkscape:pageshadow="2"
     inkscape:zoom="0.49497475"
     inkscape:cx="165.37729"
     inkscape:cy="2295.792"
     inkscape:document-units="px"
     inkscape:current-layer="layer1"
     showgrid="false"
     borderlayer="true"
     inkscape:showpageshadow="false"
     fit-margin-top="0"
     fit-margin-left="0"
     fit-margin-right="0"
     fit-margin-bottom="0"
     inkscape:window-width="1920"
     inkscape:window-height="1080"
     inkscape:window-x="0"
     inkscape:window-y="0"
     inkscape:window-maximized="1" />
  <metadata
     id="metadata7">
    <rdf:RDF>
      <cc:Work
         rdf:about="">
        <dc:format>image/svg+xml</dc:format>
        <dc:type
           rdf:resource="http://purl.org/dc/dcmitype/StillImage" />
        <dc:title />
      </cc:Work>
    </rdf:RDF>
  </metadata>
  <g
     inkscape:label="Layer 1"
     inkscape:groupmode="layer"
     id="layer1"
     transform="translate(16.639936,963.83022)">
    <path
       style="opacity:0.3;fill:#4f6d3b;fill-opacity:1;stroke:none;stroke-width:6.43810749;stroke-linecap:round;stroke-linejoin:round;stroke-miterlimit:4;stroke-dasharray:none;stroke-dashoffset:0;stroke-opacity:1"
       d="m 155.99867,-963.83022 c -0.0429,1.7771 -0.0998,1624.7276 -0.1367,1626.0586 -0.2666,9.625 -0.7497,33.7 -1.0742,53.5 -1.1218,68.4407 -1.1024,68.0404 -3.8184,80.5078 -4.5209,20.7517 -6.812,25.7032 -18.8281,40.6836 -17.6894,22.0532 -32.173401,35.5772 -55.281201,51.6211 -6.05,4.2005 -16.175002,11.3113 -22.500002,15.8007 -6.325,4.4895 -17.35,12.2195 -24.5,17.1778 -7.150003,4.9583 -19.750003,13.8139 -28.000003,19.6797 -8.25,5.8657 -15.7875,10.9565 -16.75,11.3144 -1.6308,0.6064 -1.75,3.6919 -1.75,45.3184 l 0.0058,0 0,44.66992 54.750003,-54.48242 c 30.112502,-29.9653 64.425003,-64.003 76.250003,-75.6387 57.8677,-56.9416 61.2673,-60.6665 68.4141,-74.9414 8.8976,-17.7718 11.4268,-30.625 11.5508,-58.7109 0.0413,-9.35 0.2712,-23.75 0.5117,-32 0.2405,-8.25 0.6998,-30.975 1.0195,-50.5 0.1966,-12.0073 0.4338,-1645.869 0.6836,-1660.0586 z"
       id="rect4266"
       inkscape:connector-curvature="0"
       sodipodi:nodetypes="ccsssssssscccsssssscc" />
    <path
       style="opacity:0.3;fill:#558663;fill-opacity:1;stroke:none;stroke-width:6.43810749;stroke-linecap:round;stroke-linejoin:round;stroke-miterlimit:4;stroke-dasharray:none;stroke-dashoffset:0;stroke-opacity:1"
       d="m 222.24479,-963.83022 c -1.44447,142.6811 -1.52011,1763.4062 -4.79492,1776.373 -4.30941,17.0634 -11.7815,34.566 -22.1074,51.7832 -5.1121,8.5238 -13.2305,19.4241 -39.3926,52.9004 -4.0834,5.225 -14.4544,18.5 -23.0469,29.5 -24.9464,31.9358 -37.742601,48.2919 -42.121101,53.83592 -11.879,15.0411 -28.749502,36.6356 -34.919902,44.6973 -6.2707,8.1929 -12.0551,15.6696 -19.8125,25.6543 l 138.627003,0 c 1.5122,-4.0502 3.5809,-9.6071 4.7324,-12.6875 18.1624,-48.5873 33.08768,-88.69752 37.58202,-101.00002 1.90879,-5.225 4.78171,-12.875 6.38476,-17 1.60305,-4.125 7.71976,-20.325 13.59375,-36 5.87399,-15.675 12.41597,-33.1066 14.53711,-38.7383 4.15845,-11.0408 9.09081,-33.6914 10.83008,-49.7285 1.7365,-16.0115 1.97863,-30.7345 2.51172,-153.0332 0.009,-1.9923 0.0241,-1624.5202 0.0332,-1626.5566 z m -26.34372,1661.3847 c -0.1251,0.013 -0.2129,1.527 -0.2129,4.1739 l -0.002,0 c -0.005,3.85 0.1737,5.5467 0.3946,3.7714 0.2229,-1.7752 0.2262,-4.9252 0.01,-7 -0.0676,-0.6483 -0.1326,-0.9513 -0.1894,-0.9453 z m -40.9688,0.9649 c -0.1106,0.1754 -0.1855,2.9824 -0.1855,7.709 0,6.875 0.1583,9.6875 0.3535,6.25 0.1953,-3.4375 0.1953,-9.0625 0,-12.5 -0.061,-1.0743 -0.1177,-1.5388 -0.168,-1.459 z m 40.793,24.0547 c -0.1516,-0.023 -0.2552,0.3422 -0.2852,1.0703 -0.0434,1.0541 0.1931,1.6448 0.5254,1.3125 0.3323,-0.3323 0.367,-1.1942 0.0782,-1.916 -0.1198,-0.2992 -0.2275,-0.4531 -0.3184,-0.4668 z m -41.8027,22.1777 c -0.1145,0.1473 -0.1915,2.5062 -0.1915,6.4766 0,5.775 0.1652,8.1375 0.3672,5.25 0.202,-2.8875 0.202,-7.6125 0,-10.5 -0.0631,-0.9024 -0.1237,-1.2936 -0.1757,-1.2266 z m 40.9043,3.9375 c -0.1809,-0.067 -0.3086,0.5078 -0.3086,1.5391 0,1.375 0.2265,1.9375 0.5039,1.25 0.2774,-0.6875 0.2774,-1.8125 0,-2.5 -0.0694,-0.1719 -0.1351,-0.2666 -0.1953,-0.2891 z m 0.0507,15.0937 c -0.1319,-0.012 -0.2236,1.0547 -0.2304,2.9454 -0.008,2.7499 0.1806,3.9936 0.4179,2.7636 0.2377,-1.2299 0.2436,-3.4799 0.0137,-5 -0.0718,-0.475 -0.1412,-0.7035 -0.2012,-0.709 z m -41.0507,7.9063 c -0.1809,-0.067 -0.3086,0.5078 -0.3086,1.5391 0,1.375 0.2265,1.9375 0.5039,1.25 0.2774,-0.6875 0.2774,-1.8125 0,-2.5 -0.0694,-0.1719 -0.1351,-0.2666 -0.1953,-0.2891 z m 41.1386,7.1719 c -0.2143,-0.1525 -0.5217,1.7246 -0.8965,5.5976 -0.2518,2.6025 -0.0652,4.4889 0.4161,4.1914 0.4813,-0.2974 0.8398,-2.8774 0.7968,-5.7324 -0.0394,-2.5921 -0.1497,-3.938 -0.3164,-4.0566 z m -42.1445,2.5507 c -0.1194,0.1189 -0.2021,0.9415 -0.209,2.3165 l 0.002,0 c -0.0111,2.1999 0.1833,3.2178 0.4336,2.2617 0.2501,-0.9561 0.2587,-2.7561 0.0195,-4 -0.0897,-0.4665 -0.1745,-0.6495 -0.2461,-0.5782 z m -0.9941,7.2774 c -0.1809,-0.067 -0.3086,0.5078 -0.3086,1.5391 0,1.375 0.2265,1.9375 0.5039,1.25 0.2774,-0.6875 0.2774,-1.8125 0,-2.5 -0.0694,-0.1719 -0.1351,-0.2666 -0.1953,-0.2891 z m -1,5 c -0.1809,-0.067 -0.3086,0.5078 -0.3086,1.5391 0,1.375 0.2265,1.9375 0.5039,1.25 0.2774,-0.6875 0.2774,-1.8125 0,-2.5 -0.0694,-0.1719 -0.1351,-0.2666 -0.1953,-0.2891 z m 43.0449,6.3848 c -0.1641,-0.094 -0.2793,0.7105 -0.2793,2.1543 0,1.925 0.2054,2.7125 0.457,1.75 0.2515,-0.9625 0.2515,-2.5375 0,-3.5 -0.0629,-0.2407 -0.123,-0.3729 -0.1777,-0.4043 z m -1.0449,8.6152 c -0.1809,-0.067 -0.3086,0.5078 -0.3086,1.5391 0,1.375 0.2265,1.9375 0.5039,1.25 0.2774,-0.6875 0.2774,-1.8125 0,-2.5 -0.0694,-0.1719 -0.1351,-0.2666 -0.1953,-0.2891 z m -1.1016,4.8848 c -0.1516,-0.023 -0.2552,0.3422 -0.2852,1.0703 -0.0434,1.0541 0.1931,1.6448 0.5254,1.3125 0.3323,-0.3323 0.367,-1.1942 0.0782,-1.916 -0.1198,-0.2992 -0.2275,-0.4531 -0.3184,-0.4668 z m -61.5547,25.6543 c -0.275,0 -1.315,0.9 -2.3105,2 -0.9955,1.1 -1.5836,2 -1.3086,2 0.275,0 1.3131,-0.9 2.3086,-2 0.9955,-1.1 1.5855,-2 1.3105,-2 z m -4.9609,6 c -0.275,0 -1.5578,1.125 -2.8496,2.5 -1.2917,1.375 -2.1227,2.5 -1.8477,2.5 0.275,0 1.556,-1.125 2.8477,-2.5 1.2918,-1.375 2.1246,-2.5 1.8496,-2.5 z m 50.875,4 c -0.1909,0 -1.4181,1.4625 -2.7266,3.25 -1.4723,2.0111 -1.7151,2.7093 -0.6348,1.832 1.6398,-1.3317 4.1208,-5.082 3.3614,-5.082 z m -60.8184,7 c -0.275,0 -2.2579,1.8 -4.4062,4 -2.1482,2.2 -3.6813,4 -3.4063,4 0.275,0 2.2581,-1.8 4.4063,-4 2.1483,-2.2 3.6812,-4 3.4062,-4 z m 54.9844,1.0449 c -0.3406,-0.08 -1.5647,1.1177 -4.9317,4.7051 l -4.4589,4.75 4.75,-4.459 c 2.6125,-2.452 4.75,-4.5895 4.75,-4.75 0,-0.1408 -0.0308,-0.2276 -0.1094,-0.2461 z m -64.0801,7.9551 c -0.275,0 -1.315,0.9 -2.3105,2 -0.9955,1.1 -1.5836,2 -1.3086,2 0.275,0 1.3131,-0.9 2.3086,-2 0.9955,-1.1 1.5855,-2 1.3105,-2 z m 54.0566,2 c -0.2242,0 -4.4482,4.1373 -9.3867,9.1953 -4.9385,5.058 -6.9102,7.3619 -4.3808,5.1191 4.7997,-4.2557 14.4744,-14.3144 13.7675,-14.3144 z m -66.087801,8.4589 c -0.1761,-0.1161 -1.8961,0.9359 -4.1856,2.5801 -2.6166,1.8791 -5.0255,3.8493 -5.3516,4.377 -0.3261,0.5276 1.5496,-0.578 4.1661,-2.4571 2.6166,-1.8791 5.0235,-3.8493 5.3496,-4.3769 0.0407,-0.066 0.0466,-0.1065 0.0215,-0.1231 z m 45.031201,12.5411 c -0.275,0 -1.315,0.9 -2.3105,2 -0.9955,1.1 -1.5836,2 -1.3086,2 0.275,0 1.3131,-0.9 2.3086,-2 0.9955,-1.1 1.5855,-2 1.3105,-2 z m -6.9395,6.6601 c -0.1957,-0.085 -2.5117,2.0519 -6.121,5.6934 -4.8125,4.8553 -8.75,9.1096 -8.75,9.4531 0,0.9404 10.7062,-9.7395 14.33,-14.2949 0.4361,-0.5482 0.6063,-0.8233 0.541,-0.8516 z m -65.871001,0.3399 c -0.0517,-0.052 -0.457,0.2491 -1.25,0.871 -0.962502,0.7549 -1.750002,1.5424 -1.750002,1.75 0,0.8231 0.8225,0.2947 2.128902,-1.371 0.6219,-0.7931 0.9227,-1.1984 0.8711,-1.25 z m 36.892501,28 c -0.275,0 -2.0267,1.575 -3.892501,3.5 -1.8657,1.925 -3.1676,3.5 -2.8926,3.5 0.275,0 2.0269,-1.575 3.892601,-3.5 1.8658,-1.925 3.1675,-3.5 2.8925,-3.5 z m -8.916001,9 c -0.275,0 -7.6894,7.2 -16.4765,16 -8.7871,8.8 -15.751602,16 -15.476602,16 0.275,0 7.689502,-7.2 16.476602,-16 8.7871,-8.8 15.7515,-16 15.4765,-16 z m -98.166005,97.00002 c -0.275,0 -1.315,0.9 -2.3105,2 -0.9954,1.1 -1.5836,2 -1.3086,2 0.275,0 1.3132,-0.9 2.3086,-2 0.9955,-1.1 1.5855,-2 1.3105,-2 z"
       id="rect4262"
       inkscape:connector-curvature="0"
       sodipodi:nodetypes="cssssssccsssssscccccccccccscccccscccsscccssccccccccsscccccccsccccscsscccsscccsccccssccccsccsssssscscssccsscscsccccscssssssscscsccccssssscssscccsccscscssssssscscs" />
    <path
       style="opacity:0.3;fill:#c7901c;fill-opacity:1;stroke:none;stroke-width:6.43810749;stroke-linecap:round;stroke-linejoin:round;stroke-miterlimit:4;stroke-dasharray:none;stroke-dashoffset:0;stroke-opacity:1"
       d="m 282.7819,-963.83041 c -0.10449,112.053 -0.43809,1779.78089 -1.21875,1786.05879 -0.64972,5.225 -1.68105,14.45 -2.29297,20.5 -0.61192,6.05 -2.88065,19.775 -5.04101,30.5 -2.16035,10.725 -5.66642,28.275 -7.79102,39 -4.83037,24.3838 -4.37837,22.1647 -7.52734,37 -2.77044,13.0519 -4.93762,23.9434 -6.48828,32.6191 -0.50329,2.8158 -1.39413,6.9006 -1.98047,9.0781 -0.58634,2.1775 -1.71905,7.5242 -2.51758,11.88092 -0.79853,4.3567 -3.75334,18.9469 -6.56445,32.4219 -1.98048,9.4933 -4.76879,23.0283 -7.36524,35.6855 l 137.06055,0 c -0.16287,-0.8346 -0.63019,-3.1468 -0.73242,-3.6855 -1.09573,-5.775 -2.64215,-13.65 -3.43555,-17.5 -0.7934,-3.85 -5.4928,-27.25 -10.44336,-52.00002 -4.95056,-24.75 -9.90435,-49.275 -11.00976,-54.5 -1.10542,-5.225 -2.41639,-11.75 -2.91211,-14.5 -0.49572,-2.75 -3.1782,-16.25 -5.96094,-30 -6.00006,-29.6473 -6.66485,-34.1804 -8.66406,-59 -3.05883,-37.9743 -3.57491,-1670.78359 -3.45704,-1803.55879 z m 69.03516,0 c -0.006,1.9561 -0.0137,3.6705 -0.0137,6.0586 0,16.225 0.13659,1642.86269 0.30468,1634.75019 0.11644,-5.6197 0.1484,-1633.66669 0.10352,-1640.80879 l -0.39453,0 z m 41.03906,1620.00019 c -0.0502,1.7476 -0.084,4.7232 -0.084,9.0586 0,9.625 0.15066,13.5625 0.33398,8.75 0.18331,-4.8125 0.18331,-12.6875 0,-17.5 -0.007,-0.184 -0.0126,-0.15 -0.0195,-0.3086 z m 59.88281,0 c 0.0194,4.9863 0.17036,7.0105 0.35938,4.3086 0.084,-1.2008 0.12453,-2.7366 0.13867,-4.3086 z m -296.91206,0.5195 c -0.1809,-0.067 -0.3086,0.5078 -0.3086,1.5391 0,1.375 0.2265,1.9375 0.5039,1.25 0.2774,-0.6875 0.2774,-1.8125 0,-2.5 -0.0694,-0.1719 -0.1351,-0.2666 -0.1953,-0.2891 z m 255.07612,4.8652 c -0.12413,0.013 -0.21209,1.527 -0.21484,4.1739 -0.004,3.85 0.17362,5.5467 0.39453,3.7714 0.22084,-1.7752 0.22428,-4.9252 0.008,-7 -0.0676,-0.6483 -0.13107,-0.9513 -0.1875,-0.9453 z m -213.96092,0.1153 c -0.1063,0.2175 -0.1797,3.6976 -0.1797,9.5586 0,8.525 0.1543,12.0125 0.3418,7.75 0.1874,-4.2625 0.1874,-11.2375 0,-15.5 -0.0586,-1.3321 -0.1138,-1.9075 -0.1621,-1.8086 z m -42.0059,6.2324 c -0.109,0.1894 -0.1836,3.2215 -0.1836,8.3262 0,7.425 0.1572,10.4625 0.3496,6.75 0.1924,-3.7125 0.1924,-9.7875 0,-13.5 -0.0601,-1.1602 -0.1164,-1.6623 -0.166,-1.5762 z m -0.2109,23.6719 c -0.1516,-0.023 -0.2552,0.3422 -0.2852,1.0703 -0.0434,1.0541 0.1931,1.6448 0.5254,1.3125 0.3323,-0.3323 0.367,-1.1942 0.0782,-1.916 -0.1198,-0.2992 -0.2275,-0.4531 -0.3184,-0.4668 z m 197.10155,2.1152 c -0.18087,-0.067 -0.30859,0.5078 -0.30859,1.5391 0,1.375 0.2265,1.9375 0.50391,1.25 0.27741,-0.6875 0.27741,-1.8125 0,-2.5 -0.0694,-0.1719 -0.13503,-0.2666 -0.19532,-0.2891 z m 40.89844,0.8848 c -0.15157,-0.023 -0.25516,0.3422 -0.28516,1.0703 -0.0434,1.0541 0.19311,1.6448 0.52539,1.3125 0.33225,-0.3323 0.367,-1.1942 0.0781,-1.916 -0.11971,-0.2992 -0.22742,-0.4531 -0.31836,-0.4668 z m 61.17773,6.0293 c -0.12225,0.1052 -0.20507,1.789 -0.20507,4.625 0,4.125 0.17487,5.8125 0.39062,3.75 0.21574,-2.0625 0.21574,-5.4375 0,-7.5 -0.0674,-0.6446 -0.12998,-0.9229 -0.18555,-0.875 z m -102.00976,2.6152 c -0.1257,0.091 -0.21289,1.5519 -0.21289,4.0098 0,3.575 0.18247,5.0375 0.4043,3.25 0.22182,-1.7875 0.22182,-4.7125 0,-6.5 -0.0693,-0.5586 -0.13427,-0.8013 -0.19141,-0.7598 z m -155.99026,7.3848 c -0.1222,0.1052 -0.2051,1.789 -0.2051,4.625 0,4.125 0.1749,5.8125 0.3907,3.75 0.2157,-2.0625 0.2157,-5.4375 0,-7.5 -0.0675,-0.6446 -0.13,-0.9229 -0.1856,-0.875 z m 216.01956,8.1054 c -0.11554,0.052 -0.19521,2.2383 -0.19727,6.0196 -0.003,5.5 0.16421,7.8772 0.36914,5.2832 0.20552,-2.5941 0.20656,-7.0941 0.004,-10 -0.0633,-0.9081 -0.12327,-1.3264 -0.17578,-1.3028 z m -216.02536,7.75 c -0.1555,-0.1213 -0.2637,0.9133 -0.2637,2.7696 0,2.475 0.1952,3.4875 0.4336,2.25 0.2383,-1.2375 0.2383,-3.2625 0,-4.5 -0.0596,-0.3094 -0.1181,-0.4791 -0.1699,-0.5196 z m -41.9532,0.5606 c -0.1351,-0.1421 -0.2285,1.9965 -0.2285,5.709 l 0.004,0 c 0.003,4.95 0.1762,6.8478 0.3828,4.2187 0.2022,-2.6291 0.198,-6.6791 -0.0117,-9 -0.0524,-0.5802 -0.1014,-0.8804 -0.1465,-0.9277 z m 240.01371,5.6855 c -0.0991,0.2273 -0.16748,5.3266 -0.16797,14.0235 -7e-4,12.65 0.14125,17.9611 0.31641,11.8046 0.17488,-6.1564 0.1764,-16.5064 0.002,-23 -0.0545,-2.0292 -0.10535,-2.9314 -0.15039,-2.8281 z m 60.91992,2.0781 c -0.13245,-0.012 -0.22496,1.0547 -0.23046,2.9454 -0.007,2.7499 0.1806,3.9936 0.41796,2.7636 0.23731,-1.2299 0.24354,-3.4799 0.0137,-5 -0.0718,-0.475 -0.14097,-0.7035 -0.20118,-0.709 z m 0.0195,10.6758 c -0.15541,-0.1213 -0.26368,0.9133 -0.26368,2.7696 0,2.475 0.19525,3.4875 0.4336,2.25 0.23836,-1.2375 0.23836,-3.2625 0,-4.5 -0.0596,-0.3094 -0.11812,-0.4791 -0.16992,-0.5196 z m -101.95313,4.5938 c -0.105,0.2315 -0.17578,3.9367 -0.17578,10.1758 0,9.075 0.15064,12.7875 0.33594,8.25 0.18529,-4.5375 0.18529,-11.9625 0,-16.5 -0.0579,-1.418 -0.11243,-2.0311 -0.16016,-1.9258 z m -158.07224,7.0215 c -0.164,-0.094 -0.2793,0.7105 -0.2793,2.1543 0,1.925 0.2054,2.7125 0.457,1.75 0.2515,-0.9625 0.2515,-2.5375 0,-3.5 -0.0629,-0.2407 -0.1231,-0.3729 -0.1777,-0.4043 z m -42.0821,7.9492 c -0.1294,0.07 -0.2218,0.6738 -0.2343,1.7051 -0.0203,1.65 0.187,2.4446 0.4609,1.7675 0.2739,-0.677 0.2907,-2.027 0.0371,-3 -0.095,-0.3648 -0.186,-0.5145 -0.2637,-0.4726 z m 42.0313,7.3886 c -0.1194,0.1189 -0.2021,0.9415 -0.209,2.3165 l 0.002,0 c -0.0111,2.1999 0.1833,3.2178 0.4336,2.2617 0.2501,-0.9561 0.2587,-2.7561 0.0195,-4 -0.0897,-0.4665 -0.1745,-0.6495 -0.2461,-0.5782 z m 217.96874,7.6114 c -0.12934,0.07 -0.22162,0.6738 -0.23437,1.7051 -0.0204,1.65 0.18701,2.4446 0.46094,1.7675 0.27397,-0.677 0.29065,-2.027 0.0371,-3 -0.0951,-0.3648 -0.18607,-0.5145 -0.26367,-0.4726 z m 43.08789,3.7597 c -0.13245,-0.012 -0.22496,1.0547 -0.23046,2.9454 -0.007,2.7499 0.1806,3.9936 0.41796,2.7636 0.23731,-1.2299 0.24354,-3.4799 0.0137,-5 -0.0718,-0.475 -0.14097,-0.7035 -0.20118,-0.709 z m -103.98632,2.4356 c -0.1257,0.091 -0.21094,1.5519 -0.21094,4.0098 0,3.575 0.18247,5.0375 0.4043,3.25 0.22182,-1.7875 0.22182,-4.7125 0,-6.5 -0.0693,-0.5586 -0.13623,-0.8013 -0.19336,-0.7598 z m 60.83398,0.3555 c -0.15157,-0.023 -0.25516,0.3422 -0.28516,1.0703 -0.0434,1.0541 0.19311,1.6448 0.52539,1.3125 0.33226,-0.3323 0.367,-1.1942 0.0781,-1.916 -0.11971,-0.2992 -0.22742,-0.4531 -0.31836,-0.4668 z m -217.82809,3.8847 c -0.1555,-0.1213 -0.2637,0.9133 -0.2637,2.7696 0,2.475 0.1952,3.4875 0.4336,2.25 0.2383,-1.2375 0.2383,-3.2625 0,-4.5 -0.0596,-0.3094 -0.1181,-0.4791 -0.1699,-0.5196 z m 199.92965,3.2305 c -0.18087,-0.067 -0.30859,0.5078 -0.30859,1.5391 0,1.375 0.2265,1.9375 0.50391,1.25 0.27741,-0.6875 0.27741,-1.8125 0,-2.5 -0.0694,-0.1719 -0.13503,-0.2666 -0.19532,-0.2891 z m 0.99414,8.7226 c -0.11936,0.1189 -0.20204,0.9415 -0.20898,2.3165 -0.0111,2.1999 0.18526,3.2178 0.43555,2.2617 0.25031,-0.9561 0.25872,-2.7561 0.0195,-4 -0.0897,-0.4665 -0.17448,-0.6495 -0.2461,-0.5782 z m -202.09569,3.1622 c -0.1516,-0.023 -0.2552,0.3422 -0.2852,1.0703 -0.0434,1.0541 0.1931,1.6448 0.5254,1.3125 0.3323,-0.3323 0.367,-1.1942 0.0782,-1.916 -0.1198,-0.2992 -0.2275,-0.4531 -0.3184,-0.4668 z m 159.17187,0.8847 c -0.15541,-0.1213 -0.26368,0.9133 -0.26368,2.7696 0,2.475 0.19525,3.4875 0.4336,2.25 0.23836,-1.2375 0.23836,-3.2625 0,-4.5 -0.0596,-0.3094 -0.11812,-0.4791 -0.16992,-0.5196 z m 43.92968,4.2305 c -0.18087,-0.067 -0.30859,0.5078 -0.30859,1.5391 0,1.375 0.2265,1.9375 0.50391,1.25 0.27741,-0.6875 0.27741,-1.8125 0,-2.5 -0.0694,-0.1719 -0.13503,-0.2666 -0.19532,-0.2891 z m -43.03711,4.334 c -0.12934,0.07 -0.22162,0.6738 -0.23437,1.7051 -0.0204,1.65 0.18701,2.4446 0.46094,1.7675 0.27397,-0.677 0.29065,-2.027 0.0371,-3 -0.0951,-0.3648 -0.18607,-0.5145 -0.26367,-0.4726 z m 44,1 c -0.12934,0.07 -0.22162,0.6738 -0.23437,1.7051 -0.0204,1.65 0.18701,2.4446 0.46094,1.7675 0.27397,-0.677 0.29065,-2.027 0.0371,-3 -0.0951,-0.3648 -0.18607,-0.5145 -0.26367,-0.4726 z m -43,5 c -0.12934,0.07 -0.22162,0.6738 -0.23437,1.7051 -0.0204,1.65 0.18701,2.4446 0.46094,1.7675 0.27397,-0.677 0.29065,-2.027 0.0371,-3 -0.0951,-0.3648 -0.18607,-0.5145 -0.26367,-0.4726 z m 44.03711,0.666 c -0.18087,-0.067 -0.30859,0.5078 -0.30859,1.5391 0,1.375 0.2265,1.9375 0.50391,1.25 0.27741,-0.6875 0.27741,-1.8125 0,-2.5 -0.0694,-0.1719 -0.13503,-0.2666 -0.19532,-0.2891 z m -209.66215,2.7363 c -0.1746,0 -0.4714,0.2871 -0.8046,0.8028 -0.5331,0.825 -0.9688,1.95 -0.9688,2.5 0,0.55 0.4357,0.325 0.9688,-0.5 0.5332,-0.825 0.9707,-1.95 0.9707,-2.5 0,-0.2063 -0.0613,-0.3053 -0.1661,-0.3028 z m -49.8046,2.8028 c -0.0517,-0.052 -0.457,0.2491 -1.25,0.871 -0.9625,0.7549 -1.75,1.5424 -1.75,1.75 0,0.8231 0.8225,0.2947 2.1289,-1.371 0.6219,-0.7931 0.9227,-1.1984 0.8711,-1.25 z m 216.42964,0.7949 c -0.12934,0.07 -0.22162,0.6738 -0.23437,1.7051 -0.0204,1.65 0.18701,2.4446 0.46094,1.7675 0.27397,-0.677 0.29065,-2.027 0.0371,-3 -0.0951,-0.3648 -0.18607,-0.5145 -0.26367,-0.4726 z m 44.93555,1.5508 c -0.15157,-0.023 -0.25516,0.3422 -0.28516,1.0703 -0.0434,1.0541 0.19311,1.6448 0.52539,1.3125 0.33225,-0.3323 0.367,-1.1942 0.0781,-1.916 -0.11971,-0.2992 -0.22742,-0.4531 -0.31836,-0.4668 z m -215.56059,3.8515 c -0.1746,0 -0.4714,0.2871 -0.8046,0.8028 -0.5331,0.825 -0.9688,1.95 -0.9688,2.5 0,0.55 0.4357,0.325 0.9688,-0.5 0.5332,-0.825 0.9707,-1.95 0.9707,-2.5 0,-0.2063 -0.0613,-0.3053 -0.1661,-0.3028 z m 171.56059,0.1485 c -0.15157,-0.023 -0.25516,0.3422 -0.28516,1.0703 -0.0434,1.0541 0.19311,1.6448 0.52539,1.3125 0.33225,-0.3323 0.367,-1.1942 0.0781,-1.916 -0.11971,-0.2992 -0.22742,-0.4531 -0.31836,-0.4668 z m -224.36519,2.6543 c -0.0517,-0.052 -0.457,0.2491 -1.25,0.871 -0.9625,0.7549 -1.75,1.5424 -1.75,1.75 0,0.8231 0.8225,0.2947 2.1289,-1.371 0.6219,-0.7931 0.9227,-1.1984 0.8711,-1.25 z m 225.36519,2.3457 c -0.15157,-0.023 -0.25516,0.3422 -0.28516,1.0703 -0.0434,1.0541 0.19311,1.6448 0.52539,1.3125 0.33225,-0.3323 0.367,-1.1942 0.0781,-1.916 -0.11971,-0.2992 -0.22742,-0.4531 -0.31836,-0.4668 z m -231.36519,4.6543 c -0.0517,-0.052 -0.457,0.2491 -1.25,0.871 -0.9625,0.7549 -1.75,1.5424 -1.75,1.75 0,0.8231 0.8225,0.2947 2.1289,-1.371 0.6219,-0.7931 0.9227,-1.1984 0.8711,-1.25 z m 233.36519,2.3457 c -0.15157,-0.023 -0.25516,0.3422 -0.28516,1.0703 -0.0434,1.0541 0.19311,1.6448 0.52539,1.3125 0.33225,-0.3323 0.367,-1.1942 0.0781,-1.916 -0.11971,-0.2992 -0.22742,-0.4531 -0.31836,-0.4668 z m 116.13477,2.1543 3.44726,3.75 c 3.20761,3.4903 4.05274,4.2089 4.05274,3.4453 0,-0.1671 -1.6875,-1.8546 -3.75,-3.75 z m -68.11524,1.8261 c -0.0389,0.01 -0.0746,0.03 -0.10742,0.062 -0.26213,0.2622 -0.18089,0.9584 0.18164,1.5449 0.9861,1.5955 1.5629,1.2856 0.88672,-0.4765 -0.28498,-0.7426 -0.68883,-1.203 -0.96094,-1.1309 z m -286.88472,0.1739 -3.25,2.9355 c -1.7875,1.6154 -3.25,3.0779 -3.25,3.25 0,0.7726 0.8266,0.094 3.5644,-2.9355 z m 239.60542,0.4453 c -0.0406,-0.01 -0.0638,0.037 -0.0664,0.1465 -0.0548,2.2847 3.35128,11.8815 8.20312,23.1074 2.30569,5.3347 4.35682,9.5357 4.55664,9.3359 0.19983,-0.1998 -1.29924,-4.1143 -3.33007,-8.6992 -2.03082,-4.5849 -4.97361,-12.1609 -6.54102,-16.8359 -1.37149,-4.0907 -2.538,-6.9831 -2.82227,-7.0547 z m 49.45118,3.8535 c -0.0437,0.023 -0.0142,0.1447 0.10156,0.375 1.01269,2.0152 12.88732,16.8631 19.8418,24.8105 4.85151,5.5442 14.6622,16.8005 29.42968,33.7657 3.94972,4.5375 7.40322,8.25 7.67383,8.25 0.47265,0 -12.25608,-15.0187 -24.87695,-29.3516 -5.62575,-6.3889 -23.63333,-27.7408 -30.06836,-35.6543 -1.17212,-1.4414 -1.97043,-2.2635 -2.10156,-2.1953 z m -236.5566,0.2012 c -0.0517,-0.052 -0.457,0.2491 -1.25,0.871 -0.9625,0.7549 -1.75,1.5424 -1.75,1.75 0,0.8231 0.8225,0.2947 2.1289,-1.371 0.6219,-0.7931 0.9227,-1.1984 0.8711,-1.25 z m -71.1895,14 c -0.275,0 -1.315,0.9 -2.310501,2 -0.9954,1.1 -1.5836,2 -1.3086,2 0.275,0 1.3132,-0.9 2.308601,-2 0.9955,-1.1 1.5855,-2 1.3105,-2 z m 347.68946,6.5 3.95312,4.25 c 2.17412,2.3375 4.08662,4.25 4.25,4.25 0.75658,0 -6.6e-4,-0.8727 -3.95312,-4.5489 z m -305.65036,9.5 c -0.275,0 -1.5578,1.125 -2.8496,2.5 -1.2917,1.375 -2.1227,2.5 -1.8477,2.5 0.275,0 1.556,-1.125 2.8477,-2.5 1.2918,-1.375 2.1246,-2.5 1.8496,-2.5 z m 230.52145,2.1035 c -0.22707,-0.08 -0.14582,0.2987 0.19336,1.1894 0.37553,0.9862 0.9343,1.5403 1.24219,1.2324 0.30789,-0.3078 0.002,-1.1146 -0.68164,-1.7929 -0.37036,-0.3676 -0.61767,-0.5807 -0.75391,-0.6289 z m 91.62891,2.8965 c -0.0516,0.052 0.25111,0.4569 0.87304,1.25 0.75485,0.9625 1.54235,1.75 1.75,1.75 0.82304,0 0.29271,-0.8226 -1.37304,-2.129 -0.79303,-0.6219 -1.19839,-0.9227 -1.25,-0.871 z m -89.61524,1.3261 c -0.0389,0.01 -0.0746,0.03 -0.10742,0.062 -0.26213,0.2622 -0.18089,0.9584 0.18164,1.5449 0.9861,1.5955 1.5629,1.2856 0.88672,-0.4765 -0.28498,-0.7426 -0.68883,-1.203 -0.96094,-1.1309 z m -305.384721,0.6739 c -0.0517,-0.052 -0.457,0.2491 -1.25,0.871 -0.9625,0.7549 -1.75,1.5424 -1.75,1.75 0,0.8231 0.8225,0.2947 2.1289,-1.371 0.6219,-0.7931 0.9227,-1.1984 0.8711,-1.25 z m 63.810501,1 c -0.275,0 -1.315,0.9 -2.3105,2 -0.9954,1.1 -1.5836,2 -1.3086,2 0.275,0 1.3132,-0.9 2.3086,-2 0.9955,-1.1 1.5855,-2 1.3105,-2 z m 243.4375,2.2675 c -0.30495,-0.078 1.25362,3.5901 5.65625,13.543 2.97187,6.7184 5.56672,12.0505 5.76758,11.8496 0.41123,-0.4112 -8.59334,-21.0654 -10.5332,-24.1601 -0.47915,-0.7645 -0.78898,-1.2065 -0.89063,-1.2325 z m -321.248003,6.7325 c -0.0517,-0.052 -0.457,0.2491 -1.25,0.871 -0.9625,0.7549 -1.75,1.5424 -1.75,1.75 0,0.8231 0.8225,0.2947 2.1289,-1.371 0.6219,-0.7931 0.9227,-1.1984 0.8711,-1.25 z m 60.000003,9 c -0.0517,-0.052 -0.457,0.2491 -1.25,0.871 -0.9625,0.7549 -1.75,1.5424 -1.75,1.75 0,0.8231 0.8225,0.2947 2.1289,-1.371 0.6219,-0.7931 0.9227,-1.1984 0.8711,-1.25 z m -4.5,4.5 -3.25,2.9355 c -1.7875,1.6154 -3.25,3.0779 -3.25,3.25 0,0.7726 0.8266,0.094 3.5644,-2.9355 z m 277.87105,6.6035 c -0.22707,-0.08 -0.14582,0.2987 0.19336,1.1894 0.37553,0.9862 0.9343,1.5403 1.24219,1.2324 0.30789,-0.3078 0.002,-1.1146 -0.68164,-1.7929 -0.37036,-0.3676 -0.61767,-0.5807 -0.75391,-0.6289 z m 77.45508,1.3965 1.99414,3 c 1.0967,1.65 4.54972,5.8125 7.67187,9.25 3.12216,3.4375 5.89251,6.25 6.15625,6.25 0.26374,0 -2.21832,-3.0375 -5.51562,-6.75 -3.29731,-3.7125 -6.96511,-7.875 -8.15039,-9.25 z m 33.67383,1 2.9375,3.25 c 1.6154,1.7875 3.0779,3.25 3.25,3.25 0.77256,0 0.092,-0.8267 -2.9375,-3.5645 z m -481.560566,3.8066 c -0.2809,-0.027 -1.4957,0.6653 -2.9394,1.6934 -1.65,1.1749 -3,2.3597 -3,2.6347 0,0.275 1.35,-0.4598 3,-1.6347 1.65,-1.1749 3,-2.3618 3,-2.6368 0,-0.034 -0.0205,-0.053 -0.0606,-0.057 z m 78.910205,0.6934 c -0.275,0 -1.5578,1.125 -2.8496,2.5 -1.2917,1.375 -2.1227,2.5 -1.8477,2.5 0.275,0 1.556,-1.125 2.8477,-2.5 1.2918,-1.375 2.1246,-2.5 1.8496,-2.5 z m 412.650361,5.5 8.98046,9.25 c 8.33964,8.5911 9.51954,9.7045 9.51954,8.9785 0,-0.149 -4.1625,-4.3115 -9.25,-9.25 z m -115.14649,0.8652 c -0.0241,-0.011 -0.0431,-0.01 -0.0566,0 -0.21694,0.2169 1.04279,3.6079 2.79883,7.5352 1.75603,3.9273 3.35844,6.9755 3.56055,6.7734 0.2021,-0.2021 -1.05763,-3.593 -2.79883,-7.5352 -1.63238,-3.6957 -3.14276,-6.6068 -3.50391,-6.7773 z m -396.353476,6.6348 c -0.0517,-0.052 -0.457,0.2491 -1.25,0.871 -0.9625,0.7549 -1.75,1.5424 -1.75,1.75 0,0.8231 0.8225,0.2947 2.1289,-1.371 0.6219,-0.7931 0.9227,-1.1984 0.8711,-1.25 z m 484.302696,1 c -0.275,0 1.83843,2.7 4.69727,6 2.85884,3.3 5.42422,6 5.69922,6 0.275,0 -1.84038,-2.7 -4.69922,-6 -2.85884,-3.3 -5.42227,-6 -5.69727,-6 z m -81.16211,8.2168 c -0.23055,0.018 0.079,1.1717 1.02149,3.2402 0.63934,1.4032 1.35137,2.3635 1.58007,2.1348 0.2287,-0.2287 -0.27702,-1.6928 -1.12304,-3.254 -0.79262,-1.4625 -1.2992,-2.1351 -1.47852,-2.121 z m 92.82422,5.4082 c -0.91216,-0.3844 12.7954,16.1103 24.22852,29.125 4.95245,5.6375 9.27026,10.25 9.59375,10.25 0.32349,0 -0.54031,-1.2375 -1.91993,-2.75 -3.73139,-4.0908 -16.47725,-18.8862 -23.80468,-27.6329 -3.54082,-4.2266 -7.12431,-8.2332 -7.96289,-8.9023 -0.0604,-0.048 -0.10535,-0.077 -0.13477,-0.09 z m -87.82422,5.5918 c -0.23055,0.018 0.079,1.1717 1.02149,3.2402 0.63934,1.4032 1.35137,2.3635 1.58007,2.1348 0.2287,-0.2287 -0.27702,-1.6928 -1.12304,-3.254 -0.79262,-1.4625 -1.2992,-2.1351 -1.47852,-2.121 z m -346.214883,2.7832 c -0.275,0 -2.717,2.25 -5.4257,5 -2.7086,2.75 -4.6989,5 -4.4239,5 0.275,0 2.7153,-2.25 5.4239,-5 2.7087,-2.75 4.7007,-5 4.4257,-5 z m 350.214883,6.2168 c -0.23055,0.018 0.079,1.1717 1.02149,3.2402 0.63934,1.4032 1.35137,2.3635 1.58007,2.1348 0.2287,-0.2287 -0.27702,-1.6928 -1.12304,-3.254 -0.79262,-1.4625 -1.2992,-2.1351 -1.47852,-2.121 z m -361.330083,4.7832 c -0.275,0 -1.315,0.9 -2.3105,2 -0.9954,1.1 -1.5836,2 -1.3086,2 0.275,0 1.3131,-0.9 2.3086,-2 0.9955,-1.1 1.5855,-2 1.3105,-2 z m 364.330083,2.2168 c -0.23055,0.018 0.079,1.1717 1.02149,3.2402 0.63934,1.4032 1.35137,2.3635 1.58007,2.1348 0.2287,-0.2287 -0.27702,-1.6928 -1.12304,-3.254 -0.79262,-1.4625 -1.2992,-2.1351 -1.47852,-2.121 z m -369.156283,2.7832 c -0.275,0 -10.8432,10.35 -23.484303,23.00002 -12.641,12.65 -22.7575,23 -22.4825,23 0.275,0 10.8415,-10.35 23.4825,-23 12.641103,-12.65002 22.759303,-23.00002 22.484303,-23.00002 z m 372.156283,4.2168 c -0.23055,0.018 0.079,1.1717 1.02149,3.2402 0.63934,1.4032 1.35137,2.3635 1.58007,2.1348 0.2287,-0.2287 -0.27702,-1.6928 -1.12304,-3.254 -0.79262,-1.4625 -1.2992,-2.1351 -1.47852,-2.121 z m 113.14844,13.0683 c -0.0538,0.011 0.19839,0.3826 0.79297,1.1563 1.53378,1.99562 37.80577,44.68152 48.69726,57.30862 2.96502,3.4375 5.5829,6.25 5.81836,6.25 0.4512,0 -6.77151,-8.6041 -33.24023,-39.5977 -12.55344,-14.6995 -21.77787,-25.17612 -22.06836,-25.11722 z m -106.94141,0.033 c -0.19333,0.1934 1.30132,4.02432 3.32031,8.51372 2.01898,4.4893 3.8311,8.0029 4.02735,7.8066 0.19625,-0.1962 -1.29841,-4.0272 -3.32031,-8.5136 -2.0219,-4.4865 -3.83401,-8.00002 -4.02735,-7.80672 z m 166.15235,14.18172 2.9375,3.25 c 1.6154,1.7875 3.0779,3.25 3.25,3.25 0.77256,0 0.092,-0.8267 -2.9375,-3.5645 z m -157.13672,5.8046 c -0.1926,0.1926 1.07974,3.569 2.82812,7.5039 1.74837,3.935 3.34271,6.9913 3.54297,6.7911 0.20026,-0.2003 -1.07208,-3.5786 -2.82812,-7.5059 -1.75603,-3.9273 -3.35037,-6.9817 -3.54297,-6.7891 z m 164.13672,1.1954 2.42578,2.75 c 2.26589,2.5702 3.07422,3.2081 3.07422,2.4238 0,-0.1791 -1.2375,-1.4166 -2.75,-2.75 z m 7,7 7.97656,8.25 c 7.40837,7.6623 8.52344,8.7059 8.52344,7.9765 0,-0.1504 -3.7125,-3.8629 -8.25,-8.25 z m -605.499966,1.5 c -0.0517,-0.052 -0.457,0.2491 -1.25,0.871 -0.9625,0.7549 -1.75,1.5424 -1.75,1.75 0,0.8231 0.8225,0.2947 2.1289,-1.371 0.6219,-0.7931 0.9227,-1.1984 0.8711,-1.25 z m -6.1504,6 c -0.275,0 -1.5578,1.125 -2.8496,2.5 -1.2917,1.375 -2.1227,2.5 -1.8477,2.5 0.275,0 1.556,-1.125 2.8477,-2.5 1.2918,-1.375 2.1246,-2.5 1.8496,-2.5 z m 447.330046,0.3164 c -0.32097,-0.1538 0.31525,1.6469 2.00977,5.1347 1.20373,2.4777 2.35921,4.3322 2.56836,4.1231 0.20914,-0.2092 -0.75531,-2.5603 -2.14258,-5.2266 -1.35782,-2.6097 -2.1859,-3.9116 -2.43555,-4.0312 z m -453.369146,5.6836 c -0.275,0 -1.315,0.9 -2.3105,2 -0.9954,1.1 -1.5836,2 -1.3086,2 0.275,0 1.3132,-0.9 2.3086,-2 0.9955,-1.1 1.5855,-2 1.3105,-2 z m 459.382826,7.1289 c -0.28639,-0.084 -0.17148,0.7603 0.43164,2.332 0.34294,0.8937 0.83237,1.4137 1.08984,1.1562 0.25747,-0.2574 -0.008,-1.2892 -0.5918,-2.2929 -0.44206,-0.7602 -0.75785,-1.1451 -0.92968,-1.1953 z m 1.94726,5.0879 c -0.23055,0.018 0.079,1.1717 1.02149,3.2402 0.63934,1.4032 1.35137,2.3635 1.58007,2.1348 0.2287,-0.2287 -0.27702,-1.6928 -1.12304,-3.254 -0.79262,-1.4625 -1.2992,-2.1351 -1.47852,-2.121 z m 5,11 c -0.23055,0.018 0.079,1.1717 1.02149,3.2402 0.63934,1.4032 1.35137,2.3635 1.58007,2.1348 0.2287,-0.2287 -0.27702,-1.6928 -1.12304,-3.254 -0.79262,-1.4625 -1.2992,-2.1351 -1.47852,-2.121 z m 135.03125,2.0898 c -0.0914,-0.029 0.0485,0.2201 0.32031,0.6445 0.3811,0.5953 2.40918,2.9916 4.78711,5.7344 l 0.8086,0 c -3.93526,-4.3866 -5.70352,-6.3115 -5.91602,-6.3789 z m -131.99219,5.0098 c -0.16861,-0.081 -0.0557,0.4099 0.31836,1.3691 l 0.64649,0 c -0.48027,-0.8041 -0.82735,-1.3033 -0.96485,-1.3691 z"
       id="rect4258"
       inkscape:connector-curvature="0"
       sodipodi:nodetypes="cssssssssscccsssssscccssccccssccccscccsscccscccccsccccssccccscccsscccccccccsscccsscccsccccscscccscccccccccccscscccccccccsscccsssccsccccccccsccccscsccccccccccsscccccccccsccccsscccsccccccscccsscccsscccsccccsccccsccccssccccscscccscccscccccccccccscscccccccccsccccccccccsccccccccccsccccccccccsccccscsscccssssscccsccscscsccsccscscscccccccsccccccccccsccscscsssccsccsccccsccccscccccccccsssccccsccccsssccscscsccsccccsccccccsccssssscsscccssssccccssccscscscssccscssscssccssssscssccccsssccscscccsccsccssccscccssscccsccscscscccscscscscsccccsscccssccccccccccc" />
    <path
       style="opacity:0.3;fill:#c6661a;fill-opacity:1;stroke:none;stroke-width:6.43810749;stroke-linecap:round;stroke-linejoin:round;stroke-miterlimit:4;stroke-dasharray:none;stroke-dashoffset:0;stroke-opacity:1"
       d="m 352.20182,-963.83041 c 0.24552,32.9932 0.49935,1691.17889 0.62305,1716.55879 0.26242,53.8381 0.43685,58.9328 2.42969,71 3.87157,23.4433 10.05068,42.0152 22.79101,68.5 2.51346,5.225 6.10897,13.0745 7.98828,17.4433 4.36636,10.1503 5.17398,11.9769 10.6504,24.0567 2.49345,5.5 8.87543,19.9 14.18164,32 5.30621,12.1 12.02947,27.175 14.9414,33.5 6.94004,15.07442 12.10823,26.60152 19.05274,42.50002 3.01726,6.9076 7.40988,16.8186 12.91211,29.1855 l 135.89648,0 c -3.93508,-4.5878 -8.27801,-9.6905 -10.91797,-12.8574 -10.51208,-12.6105 -49.09377,-57.8358 -58.70703,-68.81642 -5.05037,-5.7688 -11.19417,-12.9688 -13.65234,-16 -7.71215,-9.5102 -26.21108,-31.2534 -31.88477,-37.4766 -2.99115,-3.2808 -6.83599,-7.8273 -8.54297,-10.1016 -3.06784,-4.0873 -15.94028,-19.07 -26.60351,-30.9648 -13.33593,-14.8762 -30.32696,-35.4326 -33.44922,-40.4687 -4.66324,-7.5218 -10.69569,-25.9672 -12.91797,-39.5 -2.80506,-17.0819 -3.19058,-1643.94609 -4.58789,-1778.55879 z M 452.9362,669.90218 c -0.10903,0.1894 -0.1836,3.2215 -0.1836,8.3262 0,7.425 0.1572,10.4625 0.34961,6.75 0.19241,-3.7125 0.19241,-9.7875 0,-13.5 -0.0601,-1.1602 -0.11645,-1.6623 -0.16601,-1.5762 z m -40.98828,16.8828 c -0.10339,0.1589 -0.17314,4.1371 -0.17383,10.9434 -10e-4,9.9 0.14717,14.0835 0.33008,9.2988 0.183,-4.7847 0.18381,-12.8847 0.002,-18 -0.0568,-1.5986 -0.11121,-2.3144 -0.1582,-2.2422 z m 41.97461,28.9238 c -0.11554,0.052 -0.19521,2.2383 -0.19727,6.0196 -0.003,5.5 0.16389,7.8772 0.36914,5.2832 0.20552,-2.5941 0.20656,-7.0941 0.004,-10 -0.0633,-0.9081 -0.12327,-1.3264 -0.17578,-1.3028 z m -40.96875,30.2285 c -0.10061,0.1999 -0.16936,4.8504 -0.16993,12.7911 -8.2e-4,11.55 0.14435,16.4103 0.32227,10.8027 0.17744,-5.6076 0.17906,-15.0576 0.002,-21 -0.0553,-1.857 -0.10856,-2.6846 -0.15429,-2.5938 z m 41.98632,11.3106 c -0.10821,0.1049 -0.18417,3.1867 -0.18554,8.4805 -0.002,7.7 0.15401,10.9814 0.3457,7.2929 0.19202,-3.6884 0.19421,-9.9884 0.004,-14 -0.0595,-1.2536 -0.11488,-1.8211 -0.16407,-1.7734 z m -42.11328,32.4414 c -0.18087,-0.067 -0.30859,0.5078 -0.30859,1.5391 0,1.375 0.2265,1.9375 0.50391,1.25 0.27741,-0.6875 0.27741,-1.8125 0,-2.5 -0.0694,-0.1719 -0.13503,-0.2666 -0.19532,-0.2891 z m 43.06446,3.4785 c -0.12776,7e-4 -0.21658,1.2918 -0.22071,3.5606 -0.006,3.3 0.17612,4.7702 0.4043,3.2675 0.22817,-1.5026 0.23233,-4.2026 0.01,-6 -0.0695,-0.5616 -0.13529,-0.8284 -0.19336,-0.8281 z m -42.07032,10.2441 c -0.11936,0.1189 -0.20204,0.9415 -0.20898,2.3165 -0.0111,2.1999 0.18526,3.2178 0.43555,2.2617 0.25031,-0.9561 0.25872,-2.7561 0.0195,-4 -0.0897,-0.4665 -0.17448,-0.6495 -0.2461,-0.5782 z m 43.00586,2.2774 c -0.18087,-0.067 -0.30859,0.5078 -0.30859,1.5391 0,1.375 0.2265,1.9375 0.50391,1.25 0.27741,-0.6875 0.27741,-1.8125 0,-2.5 -0.0694,-0.1719 -0.13503,-0.2666 -0.19532,-0.2891 z m 0.89844,5.8848 c -0.15157,-0.023 -0.25516,0.3422 -0.28516,1.0703 -0.0434,1.0541 0.19311,1.6448 0.52539,1.3125 0.33225,-0.3323 0.367,-1.1942 0.0781,-1.916 -0.11971,-0.2992 -0.22742,-0.4531 -0.31836,-0.4668 z m -42.93555,0.4492 c -0.12934,0.07 -0.22162,0.6738 -0.23437,1.7051 -0.0204,1.65 0.18701,2.4446 0.46094,1.7675 0.27397,-0.677 0.29065,-2.027 0.0371,-3 -0.0951,-0.3648 -0.18607,-0.5145 -0.26367,-0.4726 z m 43.93555,4.5508 c -0.15157,-0.023 -0.25516,0.3422 -0.28516,1.0703 -0.0434,1.0541 0.19311,1.6448 0.52539,1.3125 0.33225,-0.3323 0.367,-1.1942 0.0781,-1.916 -0.11971,-0.2992 -0.22742,-0.4531 -0.31836,-0.4668 z m -43,1 c -0.15157,-0.023 -0.25516,0.3422 -0.28516,1.0703 -0.0434,1.0541 0.19311,1.6448 0.52539,1.3125 0.33225,-0.3323 0.367,-1.1942 0.0781,-1.916 -0.11971,-0.2992 -0.22742,-0.4531 -0.31836,-0.4668 z m 45.87695,9.0781 c -0.20963,0.2096 0.55945,2.2252 1.70899,4.4785 2.83629,5.5596 3.57294,5.2286 0.84765,-0.3809 -1.19659,-2.4629 -2.347,-4.3072 -2.55664,-4.0976 z m -42.10156,3.793 c -0.23055,0.018 0.079,1.1717 1.02149,3.2402 0.63934,1.4032 1.35137,2.3635 1.58007,2.1348 0.2287,-0.2287 -0.27702,-1.6928 -1.12304,-3.254 -0.79262,-1.4625 -1.2992,-2.1351 -1.47852,-2.121 z m 48.85938,8.7832 c -0.0516,0.052 0.25111,0.4569 0.87304,1.25 0.75485,0.9625 1.54235,1.75 1.75,1.75 0.82304,0 0.29271,-0.8226 -1.37304,-2.129 -0.79303,-0.6219 -1.19839,-0.9227 -1.25,-0.871 z m 2.5,3.5 2.42578,2.75 c 1.33338,1.5125 2.57088,2.75 2.75,2.75 0.78428,0 0.14451,-0.8103 -2.42578,-3.0762 z m -41.07032,6.5 c -0.275,0 -0.0184,0.9 0.57032,2 0.5887,1.1 1.29531,2 1.57031,2 0.275,0 0.0184,-0.9 -0.57031,-2 -0.5887,-1.1 -1.29532,-2 -1.57032,-2 z m 46.57032,0 c -0.0516,0.052 0.25111,0.4569 0.87304,1.25 1.30637,1.6657 2.12696,2.1941 2.12696,1.371 0,-0.2076 -0.7875,-0.9951 -1.75,-1.75 -0.79303,-0.6219 -1.19839,-0.9227 -1.25,-0.871 z m 7,6 c -0.0516,0.052 0.25111,0.4569 0.87304,1.25 0.75485,0.9625 1.54235,1.75 1.75,1.75 0.82304,0 0.29271,-0.8226 -1.37304,-2.129 -0.79303,-0.6219 -1.19839,-0.9227 -1.25,-0.871 z m -48,3 c -0.0516,0.052 0.25111,0.4569 0.87304,1.25 0.75485,0.9625 1.54235,1.75 1.75,1.75 0.82304,0 0.29271,-0.8226 -1.37304,-2.129 -0.79303,-0.6219 -1.19839,-0.9227 -1.25,-0.871 z m 52,0 c -0.0516,0.052 0.25111,0.4569 0.87304,1.25 0.75485,0.9625 1.54235,1.75 1.75,1.75 0.82304,0 0.29271,-0.8226 -1.37304,-2.129 -0.79303,-0.6219 -1.19839,-0.9227 -1.25,-0.871 z m -49.5,3.5 1.90625,2.25 c 1.79022,2.1144 2.59375,2.7045 2.59375,1.9043 0,-0.1898 -1.0125,-1.2023 -2.25,-2.25 z m 56.5,1.5 c -0.0516,0.052 0.25111,0.4569 0.87304,1.25 1.30637,1.6657 2.12696,2.1941 2.12696,1.371 0,-0.2076 -0.7875,-0.9951 -1.75,-1.75 -0.79303,-0.6219 -1.19839,-0.9227 -1.25,-0.871 z m -52.5,3.5 3.95312,4.25 c 2.17412,2.3375 4.08662,4.25 4.25,4.25 0.75658,0 -6.6e-4,-0.8727 -3.95312,-4.5489 z m 62.5,3.5 c -0.0516,0.052 0.25111,0.4569 0.87304,1.25 1.30637,1.6657 2.12696,2.1941 2.12696,1.371 0,-0.2076 -0.7875,-0.9951 -1.75,-1.75 -0.79303,-0.6219 -1.19839,-0.9227 -1.25,-0.871 z m 10,7 c -0.0516,0.052 0.25111,0.4569 0.87304,1.25 1.30637,1.6657 2.12696,2.1941 2.12696,1.371 0,-0.2076 -0.7875,-0.9951 -1.75,-1.75 -0.79303,-0.6219 -1.19839,-0.9227 -1.25,-0.871 z m -59.5,1.5 3.44726,3.75 c 3.20761,3.4903 4.05274,4.2089 4.05274,3.4453 0,-0.1671 -1.6875,-1.8546 -3.75,-3.75 z m 66,3.3339 3,2.5782 c 3.07653,2.6434 3.5,2.9028 3.5,2.1543 0,-0.2376 -1.4625,-1.3992 -3.25,-2.5821 z m -57.5,4.1661 c -0.0516,0.052 0.25111,0.4569 0.87304,1.25 0.75485,0.9625 1.54235,1.75 1.75,1.75 0.82304,0 0.29271,-0.8226 -1.37304,-2.129 -0.79303,-0.6219 -1.19839,-0.9227 -1.25,-0.871 z m 65,1 c -0.0516,0.052 0.25111,0.4569 0.87304,1.25 1.30637,1.6657 2.12696,2.1941 2.12696,1.371 0,-0.2076 -0.7875,-0.9951 -1.75,-1.75 -0.79303,-0.6219 -1.19839,-0.9227 -1.25,-0.871 z m -60.5,2.5 16.99023,17.25 c 15.78372,16.0262 17.50977,17.7013 17.50977,16.9882 0,-0.1435 -7.7625,-7.906 -17.25,-17.25 z m 64,0.3339 3,2.5782 c 3.07653,2.6434 3.5,2.9028 3.5,2.1543 0,-0.2376 -1.4625,-1.3992 -3.25,-2.5821 z m 13.5,9.1661 c -0.0516,0.052 0.25111,0.4569 0.87304,1.25 1.30637,1.6657 2.12696,2.1941 2.12696,1.371 0,-0.2076 -0.7875,-0.9951 -1.75,-1.75 -0.79303,-0.6219 -1.19839,-0.9227 -1.25,-0.871 z m 10,7 c -0.0516,0.052 0.25111,0.4569 0.87304,1.25 0.75485,0.9625 1.54235,1.75 1.75,1.75 0.82304,0 0.29271,-0.8226 -1.37304,-2.129 -0.79303,-0.6219 -1.19839,-0.9227 -1.25,-0.871 z m 3.5,2.8808 2.36132,2.0586 c 2.30373,2.0096 3.13868,2.4547 3.13868,1.6738 0,-0.2117 -1.2375,-1.1377 -2.75,-2.0586 z m 20.5,14.1192 c -0.0516,0.052 0.25111,0.4569 0.87304,1.25 1.30637,1.6657 2.12696,2.1941 2.12696,1.371 0,-0.2076 -0.7875,-0.9951 -1.75,-1.75 -0.79303,-0.6219 -1.19839,-0.9227 -1.25,-0.871 z m -72.5,4.5 3.44726,3.75 c 1.89539,2.0625 3.58289,3.75 3.75,3.75 0.76362,0 0.0432,-0.8471 -3.44726,-4.0547 z m 11,11 36.49609,36.75 c 20.07218,20.2125 36.60968,36.75002 36.75,36.75002 0.70484,0 -2.34033,-3.0873 -36.49609,-37.00592 z m 84.5,0.5 c -0.0516,0.052 0.25111,0.4569 0.87304,1.25 1.30637,1.6657 2.12696,2.1941 2.12696,1.371 0,-0.2076 -0.7875,-0.9951 -1.75,-1.75 -0.79303,-0.6219 -1.19839,-0.9227 -1.25,-0.871 z m 4,3 c -0.0516,0.052 0.25111,0.4569 0.87304,1.25 1.30637,1.6657 2.12696,2.1941 2.12696,1.371 0,-0.2076 -0.7875,-0.9951 -1.75,-1.75 -0.79303,-0.6219 -1.19839,-0.9227 -1.25,-0.871 z m 3.5,2.8339 3,2.5782 c 3.07653,2.6434 3.5,2.9028 3.5,2.1543 0,-0.2376 -1.4625,-1.3992 -3.25,-2.5821 z m -2,82.66612 2.42578,2.75 c 2.26589,2.5702 3.07422,3.2081 3.07422,2.4238 0,-0.1791 -1.2375,-1.4166 -2.75,-2.75 z m -41.5586,36.5 c 0.58246,0 1.0586,0.45 1.0586,1 0,0.55 -0.19692,1 -0.43946,1 -0.24254,0 -0.72062,-0.45 -1.06054,-1 -0.33992,-0.55 -0.14106,-1 0.4414,-1 z"
       id="rect4255"
       inkscape:connector-curvature="0"
       sodipodi:nodetypes="cssssssssccsscscssscccsscccscccccscscccscccccscccccsscccssccccscccccsscccccccccsccccccccccccccccssccssccccsccccsccscsssccsccccsccccsccccsccccsccccsccccsccccsccccsccccsccccsccccsccccsccccsccccsccccsccccsccccsccccsccccsccccsscccsccccsccccsccccsccsssss" />
    <path
       style="opacity:0.3;fill:#9a3612;fill-opacity:1;stroke:none;stroke-width:6.4380002;stroke-linecap:round;stroke-linejoin:round;stroke-miterlimit:4;stroke-dasharray:none;stroke-dashoffset:0;stroke-opacity:1"
       d="m 412.30925,-963.83041 c 0.37204,18.6947 0.80814,1667.04779 1.57226,1721.55879 0.3238,23.1 1.02415,45.946 1.55664,50.7695 1.11961,10.1417 5.29642,23.4035 9.50195,30.1719 1.60664,2.5857 3.65934,6.0344 4.5625,7.666 6.41451,11.5875 24.5886,31.9683 36.35743,40.7715 6.40077,4.7878 154.81353,151.88872 155.77734,154.40042 0.36296,0.9458 0.88851,1.7207 1.16797,1.7207 0.27947,0 0.51544,-20.0016 0.52344,-44.44732 0.0101,-32.3225 -0.30002,-44.6396 -1.13282,-45.1543 -0.76725,-0.4742 -0.86668,-0.2609 -0.30468,0.6484 0.46136,0.7465 -2.05683,-0.7249 -5.59571,-3.2715 -3.53888,-2.5465 -12.96054,-9.1635 -20.93554,-14.7031 -7.975,-5.5395 -15.28452,-10.6343 -16.24414,-11.3222 -0.95963,-0.688 -3.20963,-2.2828 -5,-3.543 -1.79038,-1.2602 -6.87543,-4.9003 -11.30079,-8.0899 -4.42537,-3.1895 -12.97537,-9.1126 -19,-13.164 -6.02464,-4.0514 -12.98007,-8.9953 -15.45507,-10.9863 -5.03268,-4.0487 -22.93324,-16.652 -26.93946,-18.9668 -6.43289,-3.7171 -22.08382,-16.3121 -27.31054,-21.9786 -3.1625,-3.4285 -5.75,-6.4421 -5.75,-6.6972 0,-0.2552 -1.25959,-2.3455 -2.79883,-4.6446 -9.56866,-14.2922 -11.43449,-29.7831 -12.66797,-105.1796 -0.31493,-19.25 -0.78518,-44 -1.04492,-55 -0.21675,-9.1795 -0.29864,-1633.34469 -0.46485,-1640.55879 z M 432.8112,785.65998 c 0.3503,0.039 0.47255,0.2972 0.32031,0.7539 -0.49828,1.4948 -2.77148,2.3183 -2.77148,1.0039 0,-0.537 0.71302,-1.2498 1.58398,-1.584 0.36522,-0.1401 0.65701,-0.1969 0.86719,-0.1738 z m -3.86133,4.9746 c 0.7423,0.053 1.41016,0.7832 1.41016,1.7598 0,0.4583 -0.42192,0.834 -0.93946,0.834 -1.35726,0 -2.24906,-1.7652 -1.21484,-2.4043 0.24175,-0.1495 0.49671,-0.207 0.74414,-0.1895 z m 5.30469,7.5938 c 0.49116,0 1.1502,0.675 1.46679,1.5 0.35062,0.9137 0.002,1.5 -0.89257,1.5 -0.80774,0 -1.46875,-0.675 -1.46875,-1.5 0,-0.825 0.40338,-1.5 0.89453,-1.5 z m 5.50586,4.2539 c 0.16907,-0.01 0.39646,0.1425 0.69336,0.4394 0.60158,0.6016 0.93908,1.8563 0.75,2.7891 -0.44533,2.1969 -1.84375,0.7941 -1.84375,-1.8496 0,-0.9199 0.1186,-1.3669 0.40039,-1.3789 z m 10.59961,19.7461 c 0.55,0 1,0.45 1,1 0,0.55 -0.45,1 -1,1 -0.55,0 -1,-0.45 -1,-1 0,-0.55 0.45,-1 1,-1 z m -4.56055,38.1543 c 1.30698,0.026 2.56055,1.1628 2.56055,2.8144 0,2.3898 -0.79051,2.502 -3.44532,0.4941 -1.4458,-1.0934 -1.65708,-1.7608 -0.81836,-2.5996 0.50258,-0.5025 1.10905,-0.7208 1.70313,-0.7089 z m 73.24609,56.8496 c 1.27254,-0.078 2.37686,0.3125 2.07032,1.2461 -0.22574,0.6875 -1.60946,1.3907 -3.07618,1.5644 -2.07669,0.246 -2.53431,-0.031 -2.0664,-1.25 0.35948,-0.9368 1.79972,-1.4824 3.07226,-1.5605 z"
       id="rect4250"
       inkscape:connector-curvature="0"
       sodipodi:nodetypes="cssscscscsccscscscccsssscccsscccssccsssssccsscssssscsccccsccc" />
  </g>
</svg>
