<svg xmlns:rdf="http://www.w3.org/1999/02/22-rdf-syntax-ns#" xmlns="http://www.w3.org/2000/svg" height="512" width="512" version="1.1" xmlns:cc="http://creativecommons.org/ns#" xmlns:dc="http://purl.org/dc/elements/1.1/" viewBox="0 0 512.00001 512.00001">
 <g >
  <path d="m118.09 109.82a21.693 21.693 0 0 0 -17.43 7.5293c-9.987 11.617-14.251 24.577-15.887 37.314-5.1712 4.617-10.416 10.118-14.629 18.498-3.4003 6.7643-5.4388 17.049-2.3242 26.488 3.1146 9.4392 9.744 16.127 17.102 21.221a21.693 21.693 0 0 0 8.7207 3.5508c3.3214 0.5631 6.4489 0.62071 9.4844 0.46875 4.3902 2.616 10.154 4.5982 16.371 4.0391 5.1409-0.46237 9.2933-2.4522 12.613-4.7617 36.976 44.909 71.462 74.184 114.27 112.74a21.693 21.693 0 1 0 29.031 -32.232c-44.903-40.442-77.628-68.028-113.56-112.58-2.8048-5.6994-6.1526-9.7514-9.5527-12.992 0.10693-0.74408 0.19055-1.44 0.29688-2.2305 2.0142-6.4322 2.6124-13.233 1.1504-20.025-0.0524-1.8575-0.0143-3.6602-0.1875-5.5762-0.65069-7.1968-2.208-15.148-7.0312-23.086-4.8232-7.9379-13.911-15.174-24.158-17.74a21.693 21.693 0 0 0 -4.2871 -0.62695z"/>
  <path d="m89.217 105.04c-11.48-0.66557-23.587 1.1141-33.875 11.098-5.1439 4.9918-9.1651 12.708-9.8145 20.684-0.27673 3.3987 0.06845 6.6731 0.72461 9.8359-2.5736 4.4992-4.58 9.3945-5.668 14.748-2.4002 11.811 0.10519 25.827 8.3203 36.883a21.693 21.693 0 0 0 0.76562 0.96875c16.836 20.152 44.069 23.189 63.4 14.332 3.9654-0.31031 7.9313-1.2908 11.322-3.0957 12.658-6.737 15.731-17.585 17.189-26.268 0.21795-1.2975 0.29995-2.5878 0.42774-3.8809 2.4628-8.0413 2.8706-16.772 0.68945-25.699-1.7862-15.419-9.7407-28.574-19.848-36.742-10.296-8.3204-22.154-12.198-33.635-12.863z"/>
  <path d="m235.72 27.023c-9.0664 0.33976-19.349 1.3889-37.207 3.1777a21.693 21.693 0 0 0 -15.527 9.0293c-9.2288 13.003-13.029 16.325-18.074 22.428-5.0457 6.1027-9.581 15.051-13.029 27.199a21.693 21.693 0 1 0 41.73 11.846c2.8135-9.9113 2.3336-8.501 4.7324-11.402 1.905-2.304 6.8348-7.482 14.043-16.904 24.968-2.5641 27.404-2.8578 49.754-1.0547a21.693 21.693 0 0 0 2.2305 0.06641c18.867-0.42226 30.794 1.2967 46.512 4.4668 33.033 55.425 57.379 135.1 71.186 197.85a21.693 21.693 0 0 0 0.58398 2.125c20.988 63.717 19.432 85.142 30.238 154.37-0.14523 0.29564-0.2373 0.1822-0.29687 0.23243-0.1188 0.10016-1.4096 0.94879-4.7305 1.5273-6.6418 1.1571-18.135-0.24926-31.662 1.168l0.006-0.002c-69.785 7.2975-182.43 3.3038-216.93 2.5274l1.4512 0.082c-14.614-1.3108-31.767 0.42151-46.697-0.25781-5.4352-0.24731-9.8381-0.88572-13.27-1.5801 5.8783-48.949 18.136-116.15 27.324-156.79l0.2539-0.61523a21.693 21.693 0 1 0 -40.11 -16.5l-1.0039 2.4375a21.693 21.693 0 0 0 -1.089 3.44c-10.383 45.58-24.477 122.18-30.037 175.27a21.693 21.693 0 0 0 0.96289 9.0215c4.5359 13.828 16.676 20.934 26.35 24.143 9.6734 3.209 19.198 4.0814 28.654 4.5117 18.913 0.86056 39.058-0.38531 44.791 0.12891a21.693 21.693 0 0 0 1.4512 0.082c33.06 0.744 146.37 5.2 222.41-2.752a21.693 21.693 0 0 0 0.004 0c4.3504-0.45578 18.675 1.1977 34.586-1.5742 7.9554-1.386 17.125-4.249 25.25-11.1 8.1251-6.8506 13.906-17.608 15.771-29.152a21.693 21.693 0 0 0 0.008 -6.875c-11.26-70.61-9.92-96.41-32.13-164.18-15.11-68.38-40.87-154.96-81.43-218.55a21.693 21.693 0 0 0 -13.8 -9.559c-20.95-4.433-38.71-7.645-64.02-7.232-12.52-1-20.36-1.368-29.24-1.036z"/>
 </g>
</svg>
