<svg xmlns:rdf="http://www.w3.org/1999/02/22-rdf-syntax-ns#" xmlns="http://www.w3.org/2000/svg" version="1.1" xmlns:cc="http://creativecommons.org/ns#" xmlns:dc="http://purl.org/dc/elements/1.1/" viewBox="0 0 1792 1792">
 <path d="m1128.1 56.389c-15.757-0.55159-31.334 1.0481-45.551 4.8574-37.911 10.158-76.339 38.767-96.473 73.641l-132.2 228.91c-14.978 25.943-21.857 58.914-20.234 89.711-18.096 8.9696-35.009 21.384-48.838 36.074-6.456 2.3306-18.021 5.9018-35.055 9.6387-43.187 9.4744-87.862 17.242-134.04 23.271l-0.4961 0.0644-0.49414 0.0703c-68.603 9.6555-116.83 17.768-153.68 27.643 0.15924-0.0427-4.6575 1.0588-15.053-0.13867-16.606-1.913-28.04-4.4229-29.91-4.9707-9.0744-2.6584-26.854-8.2215-50.98-16.012-22.779-8.1781-41.677-14.547-58.139-19.256-22.252-6.3655-44.585-9.7045-69.098-11.842-29.876-2.6049-60.316-0.82077-89.912 7.1094-37.911 10.158-76.341 38.768-96.475 73.641-17.878 30.965-31.667 62.899-39.961 96.285-7.38 29.708-11.464 59.087-9.6426 89.676 1.8534 31.124 10.511 61.759 24.225 89.174 10.568 21.126 22.047 40.389 36.965 58.521 14.57 17.71 30.82 32.571 49.166 47.18v-0.002c16.008 12.747 28.519 22.326 42.91 31.287 9.303 5.7927 20.308 12.32 33.627 20.01 27.353 15.792 56.682 28.116 87.266 36.865 14.607 4.1785 28.118 7.6264 41.285 10.4l-49.781 86.223c-36.043 62.428-45.305 139.67-26.637 209.35 18.669 69.673 65.312 131.94 127.74 167.98 47.337 27.33 101.54 41.751 155.81 41.691 12.513 10.891 25.844 20.684 40.504 29.23 43.124 26.61 93.058 41.63 143.62 43.752 30.772 22.815 66.091 39.558 103.32 49.223 34.303 9.2627 70.322 12.33 105.63 8.6836 63.349 34.186 134.11 49.708 203.24 37.457l0.045-0.01 0.043-0.01c93.028-16.572 169.31-81.938 220.71-167.94l0.3848-0.6465 59.576-103.19c24.106-41.753 44.462-88.23 61.846-139.41 16.292-47.965 28.052-86.844 35.551-119.96 6.4794-28.615 14.547-67.115 24.418-116.32l0.1055-0.5234 0.1-0.5234c14.339-75.667 34.95-131.1 27.277-116.89l0.2344-0.43554 0.2305-0.4375c13.44-25.493 19.598-56.858 17.992-86.482 27.754-13.966 53.157-36.602 68.262-62.764l132.16-228.92v-0.002c20.134-34.873 25.697-82.459 15.539-120.37s-38.769-76.339-73.643-96.473l-508.9-293.84c-21.796-12.584-48.559-19.477-74.82-20.396zm10.551 214.23 437.24 252.44-90.904 157.45-437.24-252.44 90.906-157.45zm-349.11 216.31c1.225-0.32929 0.89895 0.65835-1.0508 1.4531-0.51778 0.21107-2.0917 0.66355-2.7793 0.91797 1.7689-1.4028 3.1121-2.1781 3.8301-2.3711zm-8.1621 6.3652c-0.0716 0.0812-0.15121 0.15693-0.22266 0.23828 0.0742-0.0784 0.14939-0.16153 0.22266-0.23828zm-2.9688 3.4082c-2.7362 3.2955-5.3749 6.6513-7.7676 10.123l0.18945-0.27344c2.8758-4.1433 5.3263-7.2104 7.5781-9.8496zm132.44 151.1 447.97 258.64c-14.501 38.186-19.96 77.19-31.68 139.09-9.63 47.993-17.464 85.288-23.268 110.92-4.8106 21.245-14.856 55.621-29.863 99.805-13.916 40.969-29.4 75.54-45.678 103.73l-58.574 101.45c-32.023 53.509-57.302 68.663-83.926 73.416-25.541 4.5156-50.977 0.3731-92.078-27.975l-39.355-27.143-45.836 13.584c-13.092 3.8799-25.416 4.4642-44.77-0.8144l-0.69726-0.1895-0.70118-0.1797c-21.513-5.5345-33.668-13.182-44.912-25.191l-34.752-37.119-50.469 6.2129c-25.545 3.1455-41.601-0.478-63.029-14.004l-1.6699-1.0528-1.707-0.9863c-3.4257-1.9779-14.404-10.196-28.256-26.033l-37.969-43.41-56.59 11.123c-28.091 5.5221-47.275 2.5112-74.385-13.141-20.237-11.684-27.692-20.924-34.555-46.537s-5.0274-37.346 6.6563-57.582l193.34-334.86-128.61-32.19c-11.083-2.7745-21.698-5.0315-32.771-6.627-12.781-1.8414-24.943-2.428-37.242-2.373-7.4642 0.0334-12.796-0.15318-12.457-0.13282l-1.1602-0.0703-1.1621-0.043c-21.88-0.80336-38.875-2.03-49.23-3.2363-5.8003-0.67567-20.611-3.5647-40.479-9.248-15.502-4.4345-29.352-10.324-42.271-17.783-12.116-6.9953-21.624-12.667-27.912-16.582-1.2003-0.74741-11.004-7.5848-24.037-17.963-10.695-8.5165-17.267-15.313-19.305-17.789-1.6891-2.0532-6.7137-9.2744-12.545-20.932-2.6858-5.3693-3.2528-8.3222-3.4473-11.588-0.22634-3.8011 0.27011-14.169 4.0957-29.568 1.8473-7.4362 5.0712-16.33 9.6719-26.277 1.6535 0.0543 3.2918 0.10075 5.2051 0.26757 15.847 1.3818 27.034 3.6179 31.463 4.8848 9.5701 2.7376 26.213 8.2016 47.812 15.988l1.5762 0.56836 1.5938 0.51367c25.396 8.2053 43.747 13.987 56.912 17.844 20.49 6.0028 40.11 9.0568 63.252 11.723 29.353 3.3814 59.456 2.744 89.705-5.3613v-0.002c18.314-4.9072 64.579-13.602 129.79-22.779l-0.99023 0.13477c51.626-6.7404 101.97-15.474 151.01-26.232 26.513-5.8165 49.287-12.004 71.346-20.996 14.804-6.0343 30.575-11.877 46.869-25.781zm464 223.54c-0.2003 0.37111-0.3431 0.72172-0.541 1.0918 0.029-0.0578 0.047-0.16445 0.076-0.2207l0.4648-0.8711zm-963.82 196.45c0.1322 0.01 0.24927 0.01 0.38086 0.014 0.6941 0.026 1.243 0.072 1.9434 0.098l-2.3242-0.1113z"/>
</svg>
